<svg width="512" height="512" viewBox="0 0 512 512" fill="none" xmlns="http://www.w3.org/2000/svg">
<path d="M255.214 5.08938e-06L157.308 19.7866L74.4211 75.5333L19.1845 158.753L0 256.786L19.7864 354.692L75.5333 437.579L158.753 492.816L256.779 512L354.685 492.213L437.572 436.467L492.809 353.247L512 255.221L492.214 157.315L436.467 74.4282L353.247 19.1844L255.214 5.08938e-06Z" fill="#178CF2"/>
<path opacity="0.25" d="M421.979 329.557L382.193 261.363H485.199L421.979 329.557ZM358.021 351.129L379.728 264.303L418.947 331.54L358.021 351.129ZM256.835 262.574L258.004 261.363H376.731L353.962 352.432L348.457 354.203L256.835 262.574ZM326.744 428.277L349.414 360.26L423.091 433.945L326.744 428.277ZM253.067 390.496L321.346 430.324L253.067 498.596V390.496ZM191.603 421.03L175.174 350.711L247.527 387.471L191.603 421.03ZM102.963 422.05L167.466 355.195L170.045 355.918L169.046 353.558L171.526 350.987L188.131 422.05H102.963ZM127.893 266.35L163.776 350.42L95.4965 331.384L124.677 261.363H127.766L129.239 263.871L130.089 261.363H249.447V265.025L172.156 345.128L169.889 343.973L170.548 346.8L167.502 349.953L131.223 264.933C130.826 264.012 129.778 263.587 128.85 263.977C127.929 264.374 127.504 265.436 127.893 266.35ZM30.2145 261.363H120.76L92.4646 329.273L30.2145 261.363ZM92.5562 201.443L125.64 257.75H23.5833L92.5562 201.443ZM247.158 128.531L163.379 164.839L191.298 97.8135L247.158 128.531ZM315.218 94.8381L254.328 128.404L253.067 127.681V32.6871L315.218 94.8381ZM334.119 177.279L331.937 173.467L331.696 173.042L257.983 130.515L317.492 97.7072L351.723 159.036L334.119 177.279ZM414.214 99.4713L419.683 190.059L349.414 166.638L353.728 162.161C354.019 162.352 354.352 162.479 354.706 162.479C355.01 162.479 355.308 162.409 355.591 162.253C356.456 161.764 356.775 160.666 356.286 159.794L356.186 159.617L414.214 99.4713ZM484.945 257.75H385.99L422.036 195.549L484.945 257.75ZM347.026 169.11C347.232 169.514 347.586 169.84 348.046 169.996L418.968 193.636L381.81 257.75H380.103L335.982 180.552L347.026 169.11ZM333.368 183.265L375.938 257.75H261.497L333.368 183.265ZM253.067 257.75V131.854L329.039 175.685L331.504 179.992L256.474 257.75H253.067ZM163.145 168.884L249.447 131.478V255.192L163.145 168.884ZM128.361 255.249L95.6236 199.523L156.918 171.654L128.361 255.249ZM160.757 171.611L246.896 257.75H131.329L160.757 171.611ZM175.535 346.835L249.447 270.225V384.397L175.535 346.835ZM253.067 384.864V266.485L254.328 265.181L344.589 355.443L253.067 384.864ZM323.265 427.257L255.667 387.825L346.105 358.758L323.265 427.257ZM494.664 257.75H490.081L424.798 193.197L477.145 169.932C478.052 169.528 478.469 168.459 478.058 167.545C477.655 166.631 476.585 166.22 475.671 166.624L423.296 189.91L417.622 95.9432L422.949 90.4316C423.636 89.709 423.615 88.5613 422.9 87.8742C422.177 87.187 421.036 87.2012 420.349 87.9167L354.344 156.316L321.176 96.8784L415.674 90.9771C416.666 90.9134 417.424 90.0562 417.367 89.0573C417.303 88.0654 416.552 87.2933 415.447 87.3641L321.211 93.2583L350.236 35.2162C350.689 34.3236 350.328 33.2397 349.428 32.7934C348.535 32.3471 347.452 32.7084 347.005 33.601L317.697 92.2098L253.067 27.5722V22.2377C253.067 21.2388 252.259 20.4312 251.26 20.4312C250.261 20.4312 249.447 21.2388 249.447 22.2377V125.669L193.183 94.7247L246.57 29.4637C247.201 28.6915 247.087 27.558 246.315 26.9275C245.55 26.2899 244.409 26.4033 243.779 27.1755L190.703 92.054L161.565 39.6156C161.076 38.7371 159.978 38.4396 159.107 38.9142C158.236 39.396 157.924 40.4941 158.406 41.3725L188.238 95.0577L187.635 95.7945L188.117 96.0637L159.355 165.094L82.1494 87.8954C81.448 87.187 80.3075 87.187 79.5991 87.8954C78.8907 88.5968 78.8907 89.7445 79.5991 90.4529L156.861 167.715L94.675 195.981L88.7667 107.307C88.6959 106.308 87.8522 105.543 86.8391 105.628C85.8473 105.691 85.0899 106.549 85.1536 107.547L91.055 196.059L26.7285 172.667C25.7863 172.327 24.7518 172.816 24.4117 173.751C24.0717 174.686 24.5541 175.727 25.4893 176.06L89.4395 199.318L17.8592 257.75H13.9417C12.9428 257.75 12.1274 258.557 12.1274 259.556C12.1274 260.555 12.9428 261.363 13.9417 261.363H25.3189L90.9339 332.95L90.594 333.772L91.1466 333.921L85.1536 423.736C85.0899 424.735 85.8473 425.592 86.8391 425.656C86.8816 425.663 86.9246 425.663 86.9671 425.663C87.9093 425.663 88.703 424.933 88.7667 423.977L94.7026 334.912L163.506 354.09L97.4233 422.574L85.6561 434.773C84.9689 435.489 84.9907 436.637 85.7062 437.324C86.0605 437.664 86.5068 437.834 86.9602 437.834C87.4348 437.834 87.9092 437.65 88.2634 437.281L99.478 425.663H189.513L243.73 497.959C244.084 498.433 244.629 498.681 245.175 498.681C245.557 498.681 245.933 498.568 246.259 498.32C247.059 497.725 247.215 496.591 246.62 495.791L193.062 424.374L249.447 390.539V507.324L323.79 432.995L353.091 491.597C353.537 492.49 354.621 492.858 355.513 492.405C356.406 491.958 356.768 490.874 356.321 489.982L327.296 431.925L432.372 438.11L351.334 357.079L352.949 356.562C352.758 357.497 353.324 358.432 354.266 358.673C354.415 358.709 354.557 358.723 354.706 358.723C355.52 358.723 356.257 358.177 356.463 357.356L356.987 355.259L420.817 334.742L421.313 335.593L422.177 334.657L475.841 352.545C476.79 352.871 477.811 352.347 478.129 351.405C478.441 350.456 477.924 349.435 476.982 349.117L424.876 331.753L490.13 261.363H494.664C495.663 261.363 496.478 260.555 496.478 259.556C496.478 258.557 495.663 257.75 494.664 257.75Z" fill="white"/>
<path d="M139.88 388.293V124.706H204.39V230.142H300.242V124.706H364.752V388.293H300.242V285.074H204.39V388.293H139.88Z" fill="white"/>
</svg>
