<svg width="443" height="113" viewBox="0 0 443 113" fill="none" xmlns="http://www.w3.org/2000/svg">
<path d="M56 2.38487e-06L34.4111 4.32894L16.2796 16.5235L4.1966 34.7279L0 56.1726L4.5 77L16.5229 95.721L34.7272 107.804L56 112L77.5873 107.672L95.7188 95.4777L107.5 77L112 55.8301L107.672 34.4133L95.4771 16.2818L77.2727 4.19721L56 2.38487e-06Z" fill="#178CF2"/>
<mask id="mask0" mask-type="alpha" maskUnits="userSpaceOnUse" x="0" y="0" width="112" height="112">
<path d="M56 2.38487e-06L34.4111 4.32894L16.2796 16.5235L4.1966 34.7279L0 56.1726L4.5 77L16.5229 95.721L34.7272 107.804L56 112L77.5873 107.672L95.7188 95.4777L107.5 77L112 55.8301L107.672 34.4133L95.4771 16.2818L77.2727 4.19721L56 2.38487e-06Z" fill="#178CF2"/>
</mask>
<g mask="url(#mask0)">
<g opacity="0.25">
<path d="M56 0V112.001" stroke="white" stroke-linecap="round" stroke-linejoin="round"/>
<path d="M0 56.0006L112.001 56.0006" stroke="white" stroke-linecap="round" stroke-linejoin="round"/>
<path d="M34.5 4.50061L42 19.5006L55.5 27.0006" stroke="white" stroke-linecap="round" stroke-linejoin="round"/>
<path d="M34.5 108.5L42 92.5006L55.5 85.0006" stroke="white" stroke-linecap="round" stroke-linejoin="round"/>
<path d="M77.5 4L70 19.5006L56.5 27.0006" stroke="white" stroke-linecap="round" stroke-linejoin="round"/>
<path d="M77.5 107.501L70 92.5006L56.5 85.0006" stroke="white" stroke-linecap="round" stroke-linejoin="round"/>
<path d="M26 56.0006L18.5 41.3339L4 34.5" stroke="white" stroke-linecap="round" stroke-linejoin="round"/>
<path d="M26 56.0006L18.5 70.6673L3.5 77.5" stroke="white" stroke-linecap="round" stroke-linejoin="round"/>
<path d="M86 56.0006L93.5 41.3339L108 34.5" stroke="white" stroke-linecap="round" stroke-linejoin="round"/>
<path d="M86 56.0006L93.5 70.6673L108.5 77.5" stroke="white" stroke-linecap="round" stroke-linejoin="round"/>
<path d="M16.5 16.5006L56 56.0006" stroke="white" stroke-linecap="round" stroke-linejoin="round"/>
<path d="M16 96L56 56.0006" stroke="white" stroke-linecap="round" stroke-linejoin="round"/>
<path d="M95.5 16.5006L56 56.0006" stroke="white" stroke-linecap="round" stroke-linejoin="round"/>
<path d="M95.5 95.5006L56 56.0006" stroke="white" stroke-linecap="round" stroke-linejoin="round"/>
<path d="M0 56.0006L18.5 41.5006L35 35.0006L26 56.0006" stroke="white" stroke-linecap="round" stroke-linejoin="round"/>
<path d="M0 56.0006L18.5 70.5006L35 77.0006L26 56.0006" stroke="white" stroke-linecap="round" stroke-linejoin="round"/>
<path d="M112 56.0006L93.5 41.5006L77 35.0006L86 56.0006" stroke="white" stroke-linecap="round" stroke-linejoin="round"/>
<path d="M112 56.0006L93.5 70.5006L77 77.0006L86 56.0006" stroke="white" stroke-linecap="round" stroke-linejoin="round"/>
<path d="M55.5 0.000647885L42 19.5006L35.0425 35.0263L55.5 27.0006" stroke="white" stroke-linecap="round" stroke-linejoin="round"/>
<path d="M55.5 112.001L42 92.5006L35.0425 76.9749L55.5 85.0006" stroke="white" stroke-linecap="round" stroke-linejoin="round"/>
<path d="M56.5 -8.43872e-10L70 19.5006L76.9575 35.0263L56.5 27.0006" stroke="white" stroke-linecap="round" stroke-linejoin="round"/>
<path d="M56.5 112L70 92.5L77.9575 76.9748L56.5 85" stroke="white" stroke-linecap="round" stroke-linejoin="round"/>
</g>
</g>
<path d="M32 83.4257C32 84.2543 32.75 85 33.5833 85H43.5C44.4167 85 45.0833 84.2543 45.0833 83.4257V61.6343H68.9167V83.4257C68.9167 84.2543 69.5833 85 70.5 85H80.4167C81.25 85 82 84.2543 82 83.4257V28.5743C82 27.7457 81.25 27 80.4167 27H70.5C69.5833 27 68.9167 27.7457 68.9167 28.5743V49.4543H45.0833V28.5743C45.0833 27.7457 44.4167 27 43.5 27H33.5833C32.75 27 32 27.7457 32 28.5743V83.4257Z" fill="white"/>
<path d="M128 62.7718C128 63.3118 128.493 63.7978 129.041 63.7978H133.587C134.408 63.7978 134.737 63.3658 134.737 62.7718V51.3238C135.285 49.1098 136.983 47.4898 139.502 47.4898C142.131 47.4898 143.829 49.3798 143.829 52.3498V62.7718C143.829 63.3118 144.267 63.7978 144.87 63.7978H149.306C149.854 63.7978 150.347 63.3118 150.347 62.7718V52.4038C150.347 46.9498 147.499 41.6578 140.543 41.6578C137.969 41.6578 135.832 42.6298 134.737 43.4398V27.0238C134.737 26.4838 134.244 25.9978 133.696 25.9978H129.041C128.493 25.9978 128 26.4838 128 27.0238V62.7718Z" fill="white"/>
<path d="M162.268 62.2858L154.491 78.5398C154.107 79.2958 154.6 79.9978 155.422 79.9978H160.132C160.57 79.9978 160.899 79.6738 161.063 79.3498L177.824 43.6018C178.207 42.8998 177.769 42.1978 176.893 42.1978H172.511C171.853 42.1978 171.47 42.2518 171.196 42.7918L165.719 54.9958H165.664L160.132 42.7918C159.968 42.4678 159.694 42.1978 159.201 42.1978H154.272C153.45 42.1978 153.012 42.8998 153.34 43.6018L162.268 62.2858Z" fill="white"/>
<path d="M179.899 52.9978C179.899 59.2078 184.445 64.3378 190.415 64.3378C195.016 64.3378 197.59 61.0978 197.59 61.0978L198.138 62.7718C198.303 63.3658 198.686 63.7978 199.179 63.7978H201.315C201.863 63.7978 202.356 63.3118 202.356 62.7718V27.0238C202.356 26.4838 201.863 25.9978 201.315 25.9978H196.659C196.112 25.9978 195.619 26.4838 195.619 27.0238V42.6298C194.633 42.2518 192.935 41.6578 190.744 41.6578C184.226 41.6578 179.899 46.6798 179.899 52.9978ZM186.253 52.9978C186.253 49.9738 188.498 47.4898 191.566 47.4898C194.304 47.4898 195.838 48.7318 195.838 48.7318V54.9958C195.454 56.2918 194.14 58.5058 191.237 58.5058C188.334 58.5058 186.253 56.0218 186.253 52.9978Z" fill="white"/>
<path d="M208.928 62.7718C208.928 63.3118 209.421 63.7978 209.969 63.7978H214.187C214.953 63.7978 215.446 63.5278 215.446 62.7718V49.7038C215.83 48.9478 217.144 47.4898 219.335 47.4898C219.938 47.4898 220.759 47.7598 220.924 47.8138C221.362 48.0298 221.909 47.8138 222.183 47.3278L224.21 43.8178C224.867 42.4678 222.567 41.6578 219.992 41.6578C216.597 41.6578 214.57 43.9258 213.803 45.0058L213.036 42.8998C212.872 42.4678 212.543 42.1978 212.05 42.1978H209.969C209.421 42.1978 208.928 42.6298 208.928 43.2238V62.7718Z" fill="white"/>
<path d="M225.738 52.9438C225.738 59.1538 230.777 64.3378 236.966 64.3378C243.155 64.3378 248.194 59.1538 248.194 52.9438C248.194 46.8418 243.155 41.6578 236.966 41.6578C230.777 41.6578 225.738 46.8418 225.738 52.9438ZM231.708 52.9438C231.708 49.9198 234.008 47.4898 236.966 47.4898C239.869 47.4898 242.224 49.9198 242.224 52.9438C242.224 56.0218 239.869 58.5058 236.966 58.5058C234.008 58.5058 231.708 56.0218 231.708 52.9438Z" fill="white"/>
<path d="M252.18 62.3398C253.33 63.2038 255.85 64.3378 259.465 64.3378C264.997 64.3378 268.174 61.3138 268.174 57.7498C268.174 53.5378 264.997 51.7558 260.779 50.1358C258.753 49.3258 257.767 49.0018 257.767 48.0298C257.767 47.3278 258.315 46.7878 259.629 46.7878C261.711 46.7878 264.175 47.9218 264.175 47.9218C264.614 48.0838 265.216 48.0298 265.49 47.5438L266.859 44.7898C267.133 44.2498 266.859 43.6558 266.366 43.3318C265.216 42.5758 262.861 41.6578 259.629 41.6578C254.042 41.6578 251.578 44.7358 251.578 48.0298C251.578 51.3238 253.549 53.5378 257.767 55.1578C260.67 56.2918 261.437 56.8858 261.437 57.8578C261.437 58.7758 260.67 59.2078 259.574 59.2078C257.055 59.2078 254.59 57.9118 254.59 57.9118C254.097 57.6418 253.55 57.7498 253.33 58.2898L251.852 61.2058C251.632 61.6378 251.852 62.0698 252.18 62.3398Z" fill="white"/>
<path d="M279.745 63.1498C280.512 63.5818 282.483 64.3378 284.62 64.3378C290.535 64.3378 295.465 59.3698 295.465 52.9978C295.465 46.7878 290.918 41.6578 284.893 41.6578C281.333 41.6578 278.649 43.5478 277.828 44.6278L277.116 42.8458C276.951 42.4138 276.568 42.1978 276.185 42.1978H274.049C273.501 42.1978 273.008 42.6298 273.008 43.2238V78.9718C273.008 79.5118 273.501 79.9978 274.049 79.9978H278.43C279.416 79.9978 279.745 79.6198 279.745 78.9718V63.1498ZM279.471 57.2638V50.7838C279.8 49.6498 281.169 47.4898 283.962 47.4898C286.975 47.4898 289.056 49.9738 289.056 52.9978C289.056 56.0218 286.81 58.5058 283.743 58.5058C281.005 58.5058 279.471 57.2638 279.471 57.2638Z" fill="white"/>
<path d="M300.394 62.7718C300.394 63.3118 300.887 63.7978 301.435 63.7978H305.981C306.802 63.7978 307.131 63.3658 307.131 62.7718V51.3238C307.679 49.1098 309.377 47.4898 311.896 47.4898C314.525 47.4898 316.223 49.3798 316.223 52.3498V62.7718C316.223 63.3118 316.661 63.7978 317.264 63.7978H321.7C322.248 63.7978 322.741 63.3118 322.741 62.7718V52.4038C322.741 46.9498 319.893 41.6578 312.937 41.6578C310.363 41.6578 308.226 42.6298 307.131 43.4398V27.0238C307.131 26.4838 306.638 25.9978 306.09 25.9978H301.435C300.887 25.9978 300.394 26.4838 300.394 27.0238V62.7718Z" fill="white"/>
<path d="M327.207 52.9978C327.207 59.2078 331.863 64.3378 338.435 64.3378C341.995 64.3378 344.789 63.0418 346.596 61.3678C347.144 60.9358 347.034 60.3418 346.651 59.9638L344.405 57.4258C344.022 56.9938 343.529 57.1018 342.981 57.4258C341.995 58.1278 340.407 58.7758 338.709 58.7758C335.532 58.7758 333.615 56.2918 333.451 54.0778H347.473C347.966 54.0778 348.459 53.6998 348.513 53.1598C348.568 52.7818 348.623 52.0798 348.623 51.7018C348.623 45.8698 344.022 41.6578 338.38 41.6578C331.862 41.6578 327.207 46.8958 327.207 52.9978ZM333.944 50.2978C334.218 48.2458 336.025 46.6258 338.216 46.6258C340.297 46.6258 342.05 48.2998 342.214 50.2978H333.944Z" fill="white"/>
<path d="M353.241 62.7718C353.241 63.3118 353.734 63.7978 354.282 63.7978H358.499C359.266 63.7978 359.759 63.5278 359.759 62.7718V49.7038C360.142 48.9478 361.457 47.4898 363.648 47.4898C364.25 47.4898 365.072 47.7598 365.236 47.8138C365.674 48.0298 366.222 47.8138 366.496 47.3278L368.522 43.8178C369.18 42.4678 366.879 41.6578 364.305 41.6578C360.909 41.6578 358.882 43.9258 358.116 45.0058L357.349 42.8998C357.184 42.4678 356.856 42.1978 356.363 42.1978H354.282C353.734 42.1978 353.241 42.6298 353.241 43.2238V62.7718Z" fill="white"/>
<path d="M370.105 52.9978C370.105 59.2078 374.76 64.3378 381.333 64.3378C384.893 64.3378 387.687 63.0418 389.494 61.3678C390.042 60.9358 389.932 60.3418 389.549 59.9638L387.303 57.4258C386.92 56.9938 386.427 57.1018 385.879 57.4258C384.893 58.1278 383.305 58.7758 381.607 58.7758C378.43 58.7758 376.513 56.2918 376.349 54.0778H390.371C390.864 54.0778 391.356 53.6998 391.411 53.1598C391.466 52.7818 391.521 52.0798 391.521 51.7018C391.521 45.8698 386.92 41.6578 381.278 41.6578C374.76 41.6578 370.105 46.8958 370.105 52.9978ZM376.842 50.2978C377.116 48.2458 378.923 46.6258 381.114 46.6258C383.195 46.6258 384.948 48.2998 385.112 50.2978H376.842Z" fill="white"/>
<path d="M394.769 59.9098C394.769 62.3398 396.796 64.3378 399.261 64.3378C401.726 64.3378 403.807 62.3398 403.807 59.9098C403.807 57.4798 401.726 55.4278 399.261 55.4278C396.796 55.4278 394.769 57.4798 394.769 59.9098Z" fill="white"/>
<path d="M412.261 34.5298C414.397 34.5298 416.095 32.8558 416.095 30.8038C416.095 28.7518 414.397 27.0778 412.261 27.0778C410.18 27.0778 408.537 28.7518 408.537 30.8038C408.537 32.8558 410.18 34.5298 412.261 34.5298ZM409.03 62.7718C409.03 63.3118 409.523 63.7978 410.07 63.7978H414.616C415.164 63.7978 415.657 63.3118 415.657 62.7718V43.2238C415.657 42.6298 415.164 42.1978 414.616 42.1978H410.07C409.523 42.1978 409.03 42.6298 409.03 43.2238V62.7718Z" fill="white"/>
<path d="M420.543 52.9438C420.543 59.1538 425.582 64.3378 431.772 64.3378C437.961 64.3378 443 59.1538 443 52.9438C443 46.8418 437.961 41.6578 431.772 41.6578C425.582 41.6578 420.543 46.8418 420.543 52.9438ZM426.514 52.9438C426.514 49.9198 428.814 47.4898 431.772 47.4898C434.675 47.4898 437.03 49.9198 437.03 52.9438C437.03 56.0218 434.675 58.5058 431.772 58.5058C428.814 58.5058 426.514 56.0218 426.514 52.9438Z" fill="white"/>
</svg>
