<svg width="472" height="112" viewBox="0 0 472 112" fill="none" xmlns="http://www.w3.org/2000/svg">
<path d="M132.507 69.6855V38.0128H140.171V48.0223L140.084 49.9718H140.171C140.82 48.8514 141.767 47.9634 143.006 47.3141C144.246 46.6663 145.621 46.3393 147.127 46.3393C152.59 46.3393 155.322 49.1908 155.322 54.8906V69.6855H147.657V56.307C147.657 54.3001 146.816 53.2944 145.133 53.2944C143.538 53.2944 142.312 53.8569 141.455 54.9789C140.6 56.1009 140.171 57.5777 140.171 59.4095V69.6855H132.507Z" fill="black"/>
<path d="M162.354 71.7666C163.18 72.3275 163.963 72.608 164.702 72.608C166.532 72.608 167.758 71.8394 168.379 70.3052L168.821 69.2421L159.12 46.8722H167.803L171.169 57.3698L172.01 60.914H172.099C172.395 59.4666 172.646 58.3306 172.852 57.5016L175.733 46.8722H184.104L174.758 72.1214C173.871 74.4832 172.565 76.2188 170.837 77.3269C169.109 78.4349 167.24 78.9882 165.232 78.9882C164.347 78.9882 163.461 78.8533 162.576 78.5883C161.688 78.3218 161.024 78.0583 160.581 77.7918L159.918 77.392L162.354 71.7666Z" fill="black"/>
<path d="M196.339 54.2688C195.482 55.2436 195.056 56.5717 195.056 58.2547C195.056 59.9392 195.468 61.2983 196.296 62.3304C197.122 63.3656 198.2 63.8816 199.53 63.8816C200.799 63.8816 201.861 63.409 202.719 62.4652C203.575 61.5199 204.002 60.1143 204.002 58.2547C204.002 56.7793 203.612 55.5008 202.829 54.4253C202.048 53.3468 200.948 52.8059 199.53 52.8059C198.259 52.8059 197.196 53.2941 196.339 54.2688ZM190.161 66.9159C188.285 64.7169 187.348 61.8283 187.348 58.2547C187.348 54.6826 188.313 51.8032 190.249 49.6166C192.183 47.4315 194.686 46.339 197.757 46.339C200.533 46.339 202.527 46.9449 203.738 48.1568H203.827C203.796 47.8608 203.782 47.5199 203.782 47.1371V38.0109H211.446V69.6853H204.269V68.1789L204.314 66.8942H204.226C202.778 69.1088 200.576 70.2168 197.624 70.2168C194.525 70.2168 192.036 69.1165 190.161 66.9159Z" fill="black"/>
<path d="M218.794 69.6855V46.8724H226.148V50.725L226.059 52.1429H226.148C226.65 50.5483 227.572 49.2047 228.917 48.1106C230.26 47.0196 231.759 46.4726 233.414 46.4726C233.65 46.4726 233.944 46.502 234.299 46.5609V54.0909C234.034 54.0026 233.516 53.9592 232.749 53.9592C230.682 53.9592 229.117 54.5651 228.054 55.7739C226.991 56.9858 226.457 58.6703 226.457 60.8259V69.6855H218.794Z" fill="black"/>
<path d="M246.178 58.343C246.178 59.9981 246.68 61.3262 247.684 62.3304C248.686 63.3361 249.912 63.8367 251.361 63.8367C252.807 63.8367 254.031 63.3361 255.037 62.3304C256.041 61.3262 256.542 59.9981 256.542 58.343C256.542 56.66 256.041 55.3025 255.037 54.2688C254.031 53.2336 252.807 52.7176 251.361 52.7176C249.912 52.7176 248.686 53.2336 247.684 54.2688C246.68 55.3025 246.178 56.66 246.178 58.343ZM242.145 66.9159C239.666 64.7154 238.424 61.8577 238.424 58.343C238.424 54.8298 239.666 51.9489 242.145 49.705C244.626 47.461 247.684 46.3375 251.315 46.3375C254.978 46.3375 258.056 47.4532 260.553 49.6833C263.048 51.9133 264.295 54.8004 264.295 58.343C264.295 61.8577 263.055 64.7154 260.574 66.9159C258.093 69.115 255.022 70.2168 251.361 70.2168C247.698 70.2168 244.626 69.115 242.145 66.9159Z" fill="black"/>
<path d="M269.206 66.9376L271.244 64.0149C273.046 65.7568 275.245 66.6292 277.844 66.6292C278.996 66.6292 279.919 66.3704 280.614 65.8528C281.308 65.3368 281.655 64.6193 281.655 63.705C281.655 62.9363 281.255 62.2715 280.459 61.7105C279.662 61.151 278.701 60.6629 277.579 60.2507C276.457 59.8369 275.334 59.3782 274.212 58.8761C273.09 58.374 272.131 57.6425 271.332 56.6833C270.534 55.724 270.138 54.5648 270.138 53.2057C270.138 51.1679 270.905 49.581 272.44 48.4435C273.976 47.3076 275.895 46.7373 278.199 46.7373C281.212 46.7373 283.634 47.5664 285.464 49.2183L283.736 52.3193C283.087 51.6994 282.238 51.2128 281.189 50.8579C280.143 50.503 279.1 50.3264 278.066 50.3264C276.916 50.3264 275.991 50.5635 275.298 51.0346C274.604 51.5073 274.257 52.2015 274.257 53.1174C274.257 53.9139 274.657 54.5943 275.453 55.1537C276.251 55.7162 277.209 56.1966 278.332 56.5949C279.454 56.9932 280.584 57.4442 281.722 57.9463C282.859 58.4484 283.826 59.1798 284.623 60.1375C285.421 61.0984 285.819 62.2575 285.819 63.6151C285.819 65.5367 285.066 67.1158 283.56 68.3556C282.053 69.5969 280.119 70.2168 277.757 70.2168C274.212 70.2168 271.362 69.1243 269.206 66.9376Z" fill="black"/>
<path d="M297.287 58.5662C297.287 60.6924 297.854 62.5458 298.993 64.1265C300.129 65.7056 301.672 66.496 303.622 66.496C305.454 66.496 306.99 65.78 308.229 64.3466C309.469 62.9146 310.089 60.9744 310.089 58.5228C310.089 56.1021 309.506 54.1588 308.341 52.6975C307.172 51.2345 305.644 50.5031 303.755 50.5031C301.923 50.5031 300.388 51.1834 299.146 52.5409C297.907 53.9 297.287 55.91 297.287 58.5662ZM293.123 78.5449V47.2704H297.11V49.2649L296.977 50.9463H297.065C297.773 49.6182 298.793 48.5861 300.121 47.8453C301.452 47.1077 302.942 46.7373 304.597 46.7373C307.608 46.7373 310.001 47.8174 311.773 49.9731C313.545 52.1287 314.431 54.9631 314.431 58.4778C314.431 62.022 313.484 64.8642 311.595 67.0058C309.706 69.1475 307.268 70.2184 304.287 70.2184C301.304 70.2184 298.985 68.9476 297.33 66.4077H297.243C297.361 66.9377 297.42 67.5901 297.42 68.3556V78.5449H293.123Z" fill="black"/>
<path d="M321.974 69.6855V38.4095H326.271V50.0167L326.094 51.8764H326.183C326.802 50.5777 327.85 49.3953 329.328 48.3338C330.804 47.2707 332.561 46.7376 334.599 46.7376C339.708 46.7376 342.264 49.6045 342.264 55.3322V69.6855H337.965V56.307C337.965 54.5062 337.678 53.1177 337.103 52.1429C336.527 51.1682 335.411 50.68 333.757 50.68C331.602 50.68 329.817 51.4719 328.399 53.0511C326.979 54.6302 326.271 56.6324 326.271 59.0546V69.6855H321.974Z" fill="black"/>
<path d="M354.037 55.9518H366.042C365.982 54.0906 365.443 52.6447 364.425 51.6111C363.406 50.5774 362.129 50.0598 360.592 50.0598C358.911 50.0598 357.47 50.5852 356.273 51.6328C355.078 52.6819 354.331 54.1216 354.037 55.9518ZM349.43 58.4763C349.43 54.9631 350.493 52.1271 352.619 49.9715C354.745 47.8159 357.432 46.7373 360.681 46.7373C363.723 46.7373 366.1 47.7337 367.814 49.7282C369.526 51.7211 370.383 54.2239 370.383 57.2365C370.383 57.6224 370.324 58.2268 370.207 59.0528H353.904C354.021 61.3866 354.812 63.2106 356.273 64.5232C357.736 65.8389 359.514 66.496 361.612 66.496C364.064 66.496 366.264 65.625 368.212 63.8816L370.028 67.026C368.965 68.0023 367.643 68.7756 366.064 69.3521C364.483 69.9301 362.912 70.2168 361.347 70.2168C357.862 70.2168 355.004 69.101 352.775 66.871C350.544 64.6425 349.43 61.8438 349.43 58.4763Z" fill="black"/>
<path d="M377.779 69.6855V47.2707H381.944V51.3014L381.811 52.9395H381.899C382.46 51.2286 383.374 49.8106 384.647 48.6871C385.914 47.5667 387.376 47.0041 389.031 47.0041C389.325 47.0041 389.71 47.0336 390.182 47.0925V51.3448C389.947 51.2859 389.533 51.2565 388.943 51.2565C386.699 51.2565 384.992 52.1646 383.825 53.9824C382.659 55.7971 382.076 57.9311 382.076 60.3827V69.6855H377.779Z" fill="black"/>
<path d="M399.226 55.9518H411.232C411.173 54.0906 410.634 52.6447 409.615 51.6111C408.596 50.5774 407.319 50.0598 405.781 50.0598C404.1 50.0598 402.66 50.5852 401.462 51.6328C400.268 52.6819 399.521 54.1216 399.226 55.9518ZM394.619 58.4763C394.619 54.9631 395.684 52.1271 397.808 49.9715C399.934 47.8159 402.622 46.7373 405.871 46.7373C408.913 46.7373 411.289 47.7337 413.003 49.7282C414.715 51.7211 415.572 54.2239 415.572 57.2365C415.572 57.6224 415.513 58.2268 415.396 59.0528H399.093C399.211 61.3866 400.001 63.2106 401.462 64.5232C402.925 65.8389 404.704 66.496 406.803 66.496C409.253 66.496 411.453 65.625 413.401 63.8816L415.218 67.026C414.156 68.0023 412.833 68.7756 411.255 69.3521C409.673 69.9301 408.101 70.2168 406.536 70.2168C403.051 70.2168 400.193 69.101 397.965 66.871C395.733 64.6425 394.619 61.8438 394.619 58.4763Z" fill="black"/>
<path d="M422.749 65.0331H427.357V69.6853H422.749V65.0331Z" fill="black"/>
<path d="M435.994 47.2691H440.29V69.684H435.994V47.2691Z" fill="black"/>
<path d="M452.024 58.4329C452.024 60.7667 452.768 62.6945 454.26 64.2133C455.751 65.7351 457.577 66.496 459.732 66.496C461.859 66.496 463.675 65.7273 465.181 64.1916C466.687 62.6574 467.439 60.7357 467.439 58.4329C467.439 56.1285 466.687 54.2239 465.181 52.7176C463.675 51.2128 461.859 50.4597 459.732 50.4597C457.577 50.4597 455.751 51.2128 454.26 52.7176C452.768 54.2239 452.024 56.1285 452.024 58.4329ZM447.638 58.4329C447.638 55.0948 448.804 52.3131 451.138 50.0815C453.471 47.8531 456.32 46.7373 459.687 46.7373C463.084 46.7373 465.948 47.8438 468.28 50.0598C470.614 52.2744 471.781 55.0654 471.781 58.4329C471.781 61.7988 470.614 64.6053 468.28 66.8493C465.948 69.0933 463.098 70.2168 459.732 70.2168C456.365 70.2168 453.507 69.0933 451.159 66.8493C448.813 64.6053 447.638 61.7988 447.638 58.4329Z" fill="black"/>
<path d="M55.828 2.38487e-06L34.4111 4.32833L16.2796 16.5229L4.1966 34.7273L0 56.172L4.32827 77.5889L16.5229 95.7204L34.7272 107.803L56.1704 112L77.5873 107.672L95.7188 95.4771L107.802 77.2727L112 55.8295L107.672 34.4127L95.4771 16.2812L77.2727 4.1966L55.828 2.38487e-06Z" fill="#178CF2"/>
<g opacity="0.25">
<g opacity="0.25">
<path opacity="0.25" d="M92.3078 72.0904L83.6047 57.173H106.137L92.3078 72.0904ZM78.3171 76.8092L83.0653 57.8161L91.6445 72.5243L78.3171 76.8092ZM56.1827 57.438L56.4384 57.173H82.4098L77.4291 77.0944L76.2249 77.4818L56.1827 57.438ZM71.4751 93.6855L76.4342 78.8068L92.5511 94.9252L71.4751 93.6855ZM55.3583 85.4209L70.2943 94.1333L55.3583 109.068V85.4209ZM41.913 92.1001L38.3193 76.7178L54.1464 84.7592L41.913 92.1001ZM22.5231 92.3233L36.6332 77.6988L37.1973 77.8568L36.9788 77.3408L37.5212 76.7782L41.1537 92.3233H22.5231ZM27.9766 58.264L35.8258 76.6543L20.8898 72.4902L27.2731 57.173H27.9488L28.2709 57.7216L28.4569 57.173H54.5664V57.9742L37.6591 75.4966L37.1632 75.244L37.3073 75.8624L36.641 76.552L28.7049 57.954C28.6181 57.7526 28.3888 57.6596 28.1858 57.7448C27.9844 57.8316 27.8914 58.0641 27.9766 58.264ZM6.60937 57.173H26.4161L20.2266 72.0284L6.60937 57.173ZM20.2466 44.0656L27.4838 56.3826H5.1588L20.2466 44.0656ZM54.0658 28.1161L35.739 36.0583L41.8464 21.3966L54.0658 28.1161ZM68.9538 20.7457L55.6341 28.0882L55.3583 27.9301V7.15017L68.9538 20.7457ZM73.0884 38.7796L72.6111 37.9458L72.5584 37.8528L56.4337 28.55L69.4512 21.3733L76.9394 34.7891L73.0884 38.7796ZM90.6093 21.7592L91.8057 41.5752L76.4342 36.4519L77.378 35.4725C77.4415 35.5143 77.5143 35.5422 77.5918 35.5422C77.6584 35.5422 77.7235 35.5267 77.7855 35.4926C77.9746 35.3857 78.0444 35.1455 77.9374 34.9549L77.9157 34.9162L90.6093 21.7592ZM106.082 56.3826H84.4353L92.3202 42.7763L106.082 56.3826ZM75.912 36.9928C75.9569 37.0811 76.0344 37.1524 76.1351 37.1865L91.6491 42.3578L83.5209 56.3826H83.1475L73.4959 39.4955L75.912 36.9928ZM72.9241 40.0891L82.2363 56.3826H57.2024L72.9241 40.0891ZM55.3583 56.3826V28.8429L71.9773 38.4309L72.5165 39.3731L56.1037 56.3826H55.3583ZM35.6879 36.9432L54.5664 28.7608V55.8232L35.6879 36.9432ZM28.0789 55.8356L20.9176 43.6456L34.3257 37.5491L28.0789 55.8356ZM35.1656 37.5398L54.0084 56.3826H28.7282L35.1656 37.5398ZM38.3983 75.8701L54.5664 59.1116V84.0866L38.3983 75.8701ZM55.3583 84.1889V58.2934L55.6341 58.0083L75.3789 77.753L55.3583 84.1889ZM70.7143 93.4623L55.927 84.8367L75.7105 78.4783L70.7143 93.4623ZM108.208 56.3826H107.205L92.9245 42.2618L104.375 37.1725C104.574 37.0842 104.665 36.8502 104.575 36.6503C104.487 36.4504 104.253 36.3605 104.053 36.4488L92.596 41.5427L91.3547 20.9874L92.5201 19.7818C92.6704 19.6237 92.6657 19.3727 92.5092 19.2223C92.3511 19.072 92.1016 19.0751 91.9513 19.2316L77.5127 34.194L70.2571 21.192L90.9286 19.9011C91.1455 19.8872 91.3114 19.6996 91.299 19.4811C91.285 19.2642 91.1207 19.0953 90.8789 19.1108L70.2649 20.4001L76.614 7.7034C76.7132 7.50814 76.6341 7.27105 76.4373 7.17341C76.242 7.07578 76.005 7.15482 75.9073 7.35008L69.4962 20.1708L55.3583 6.03129V4.86435C55.3583 4.64584 55.1816 4.4692 54.9631 4.4692C54.7446 4.4692 54.5664 4.64584 54.5664 4.86435V27.49L42.2586 20.7209L53.9372 6.44505C54.0751 6.27614 54.0503 6.02818 53.8814 5.89025C53.714 5.75078 53.4645 5.77558 53.3266 5.9445L41.7162 20.1367L35.3423 8.66577C35.2354 8.47361 34.9952 8.40852 34.8046 8.51235C34.614 8.61774 34.5458 8.85794 34.6512 9.0501L41.177 20.7937L41.0452 20.9549L41.1506 21.0138L34.8588 36.1141L17.9701 19.227C17.8167 19.072 17.5672 19.072 17.4123 19.227C17.2573 19.3804 17.2573 19.6315 17.4123 19.7864L34.3133 36.6875L20.7101 42.8708L19.4177 23.4732C19.4022 23.2547 19.2176 23.0873 18.996 23.1059C18.7791 23.1198 18.6134 23.3073 18.6273 23.5259L19.9182 42.8878L5.84682 37.7707C5.64071 37.6963 5.41441 37.8033 5.34003 38.0078C5.26564 38.2124 5.37118 38.4402 5.57574 38.513L19.5649 43.6007L3.90667 56.3826H3.04972C2.83121 56.3826 2.65283 56.5593 2.65283 56.7778C2.65283 56.9963 2.83121 57.173 3.04972 57.173H5.53847L19.8917 72.8327L19.8174 73.0125L19.9383 73.045L18.6273 92.6921C18.6134 92.9106 18.7791 93.0981 18.996 93.1121C19.0053 93.1136 19.0147 93.1136 19.024 93.1136C19.2301 93.1136 19.4037 92.954 19.4177 92.7448L20.7162 73.262L35.7669 77.457L21.3113 92.438L18.7372 95.1066C18.5869 95.2631 18.5917 95.5141 18.7482 95.6645C18.8257 95.7388 18.9233 95.776 19.0225 95.776C19.1263 95.776 19.2301 95.7357 19.3076 95.6552L21.7608 93.1136H41.4559L53.3158 108.928C53.3933 109.032 53.5126 109.086 53.6319 109.086C53.7156 109.086 53.7977 109.062 53.869 109.007C54.0441 108.877 54.0782 108.629 53.948 108.454L42.2323 92.8316L54.5664 85.4302V110.977L70.8289 94.7176L77.2385 107.537C77.3362 107.732 77.5732 107.813 77.7685 107.713C77.9638 107.616 78.0428 107.379 77.9452 107.183L71.596 94.4836L94.5812 95.8365L76.8541 78.111L77.2075 77.9979C77.1657 78.2024 77.2896 78.407 77.4957 78.4597C77.5283 78.4674 77.5593 78.4705 77.5918 78.4705C77.77 78.4705 77.9312 78.3512 77.9761 78.1714L78.0908 77.7127L92.0537 73.2248L92.1621 73.4107L92.3511 73.2062L104.09 77.1192C104.298 77.1905 104.521 77.0758 104.591 76.8697C104.659 76.662 104.546 76.4389 104.34 76.3691L92.9416 72.5708L107.216 57.173H108.208C108.426 57.173 108.604 56.9963 108.604 56.7778C108.604 56.5593 108.426 56.3826 108.208 56.3826Z" fill="black"/>
</g>
</g>
<path d="M30.5986 84.9392V27.2795H44.7101V50.3437H65.6776V27.2795H79.7892V84.9392H65.6776V62.3601H44.7101V84.9392H30.5986Z" fill="white"/>
</svg>
