<svg width="406" height="97" viewBox="0 0 406 97" fill="none" xmlns="http://www.w3.org/2000/svg">
<path d="M114.013 59.957V32.7064H120.606V41.3184L120.532 42.9957H120.606C121.165 42.0317 121.98 41.2677 123.046 40.7091C124.113 40.1517 125.296 39.8704 126.592 39.8704C131.292 39.8704 133.642 42.3237 133.642 47.2277V59.957H127.048V48.4464C127.048 46.7197 126.324 45.8544 124.876 45.8544C123.504 45.8544 122.449 46.3384 121.712 47.3037C120.976 48.2691 120.606 49.5397 120.606 51.1157V59.957H114.013Z" fill="white"/>
<path d="M139.693 61.7477C140.404 62.2304 141.077 62.4717 141.713 62.4717C143.287 62.4717 144.342 61.8104 144.877 60.4904L145.257 59.5758L136.91 40.3291H144.381L147.277 49.3611L148.001 52.4104H148.077C148.331 51.1651 148.547 50.1878 148.725 49.4744L151.203 40.3291H158.406L150.365 62.0531C149.602 64.0851 148.478 65.5784 146.992 66.5317C145.505 67.4851 143.897 67.9611 142.169 67.9611C141.408 67.9611 140.645 67.8451 139.883 67.6171C139.119 67.3877 138.549 67.1611 138.167 66.9317L137.597 66.5877L139.693 61.7477Z" fill="white"/>
<path d="M168.933 46.6931C168.195 47.5318 167.829 48.6745 167.829 50.1225C167.829 51.5718 168.183 52.7411 168.895 53.6291C169.606 54.5198 170.534 54.9638 171.678 54.9638C172.77 54.9638 173.683 54.5571 174.422 53.7451C175.158 52.9318 175.526 51.7225 175.526 50.1225C175.526 48.8531 175.19 47.7531 174.517 46.8278C173.845 45.8998 172.898 45.4345 171.678 45.4345C170.585 45.4345 169.67 45.8545 168.933 46.6931ZM163.617 57.5744C162.003 55.6824 161.197 53.1971 161.197 50.1225C161.197 47.0491 162.027 44.5718 163.693 42.6905C165.357 40.8105 167.51 39.8705 170.153 39.8705C172.541 39.8705 174.257 40.3918 175.298 41.4345H175.375C175.349 41.1798 175.337 40.8865 175.337 40.5571V32.7052H181.93V59.9571H175.755V58.6611L175.794 57.5558H175.718C174.473 59.4611 172.578 60.4144 170.038 60.4144C167.371 60.4144 165.23 59.4678 163.617 57.5744Z" fill="white"/>
<path d="M188.253 59.957V40.3291H194.579V43.6437L194.503 44.8637H194.579C195.011 43.4917 195.805 42.3357 196.962 41.3944C198.118 40.4557 199.407 39.9851 200.831 39.9851C201.034 39.9851 201.287 40.0104 201.593 40.0611V46.5397C201.365 46.4637 200.919 46.4264 200.259 46.4264C198.481 46.4264 197.134 46.9477 196.219 47.9877C195.305 49.0304 194.846 50.4797 194.846 52.3344V59.957H188.253Z" fill="white"/>
<path d="M211.813 50.1985C211.813 51.6224 212.245 52.7651 213.109 53.6291C213.971 54.4944 215.026 54.9251 216.273 54.9251C217.517 54.9251 218.57 54.4944 219.435 53.6291C220.299 52.7651 220.73 51.6224 220.73 50.1985C220.73 48.7505 220.299 47.5825 219.435 46.6931C218.57 45.8025 217.517 45.3585 216.273 45.3585C215.026 45.3585 213.971 45.8025 213.109 46.6931C212.245 47.5825 211.813 48.7505 211.813 50.1985ZM208.343 57.5744C206.21 55.6811 205.142 53.2224 205.142 50.1985C205.142 47.1758 206.21 44.6971 208.343 42.7665C210.478 40.8358 213.109 39.8691 216.233 39.8691C219.385 39.8691 222.033 40.8291 224.181 42.7478C226.327 44.6665 227.401 47.1505 227.401 50.1985C227.401 53.2224 226.334 55.6811 224.199 57.5744C222.065 59.4664 219.422 60.4144 216.273 60.4144C213.121 60.4144 210.478 59.4664 208.343 57.5744Z" fill="white"/>
<path d="M231.626 57.5931L233.379 55.0784C234.93 56.5771 236.822 57.3278 239.058 57.3278C240.049 57.3278 240.843 57.1051 241.441 56.6598C242.038 56.2158 242.337 55.5984 242.337 54.8118C242.337 54.1504 241.993 53.5784 241.307 53.0958C240.622 52.6145 239.795 52.1944 238.83 51.8398C237.865 51.4838 236.898 51.0891 235.933 50.6571C234.967 50.2251 234.142 49.5958 233.455 48.7705C232.769 47.9451 232.427 46.9478 232.427 45.7785C232.427 44.0251 233.087 42.6598 234.409 41.6811C235.73 40.7038 237.381 40.2131 239.363 40.2131C241.955 40.2131 244.039 40.9265 245.614 42.3478L244.127 45.0158C243.569 44.4825 242.838 44.0638 241.935 43.7585C241.035 43.4531 240.138 43.3011 239.249 43.3011C238.259 43.3011 237.463 43.5051 236.867 43.9105C236.27 44.3171 235.971 44.9145 235.971 45.7025C235.971 46.3878 236.315 46.9731 237.001 47.4545C237.687 47.9385 238.511 48.3518 239.478 48.6945C240.443 49.0371 241.415 49.4251 242.394 49.8571C243.373 50.2891 244.205 50.9185 244.89 51.7425C245.577 52.5691 245.919 53.5664 245.919 54.7344C245.919 56.3878 245.271 57.7464 243.975 58.8131C242.679 59.8811 241.015 60.4144 238.983 60.4144C235.933 60.4144 233.481 59.4744 231.626 57.5931Z" fill="white"/>
<path d="M255.786 50.3904C255.786 52.2197 256.274 53.8144 257.254 55.1744C258.231 56.5331 259.559 57.2131 261.236 57.2131C262.812 57.2131 264.134 56.5971 265.2 55.3637C266.267 54.1317 266.8 52.4624 266.8 50.3531C266.8 48.2704 266.299 46.5984 265.296 45.3411C264.291 44.0824 262.976 43.4531 261.351 43.4531C259.775 43.4531 258.454 44.0384 257.386 45.2064C256.319 46.3758 255.786 48.1051 255.786 50.3904ZM252.203 67.5797V40.6718H255.634V42.3878L255.519 43.8344H255.595C256.204 42.6918 257.082 41.8038 258.224 41.1664C259.37 40.5318 260.651 40.2131 262.075 40.2131C264.666 40.2131 266.724 41.1424 268.25 42.9971C269.774 44.8518 270.536 47.2904 270.536 50.3144C270.536 53.3637 269.722 55.8091 268.096 57.6517C266.471 59.4944 264.374 60.4157 261.808 60.4157C259.242 60.4157 257.247 59.3224 255.823 57.1371H255.748C255.85 57.5931 255.9 58.1544 255.9 58.8131V67.5797H252.203Z" fill="white"/>
<path d="M277.026 59.957V33.0478H280.723V43.0344L280.571 44.6344H280.647C281.18 43.5171 282.082 42.4997 283.354 41.5864C284.623 40.6718 286.135 40.2131 287.888 40.2131C292.284 40.2131 294.483 42.6797 294.483 47.6077V59.957H290.784V48.4464C290.784 46.8971 290.538 45.7024 290.043 44.8637C289.547 44.0251 288.587 43.6051 287.164 43.6051C285.31 43.6051 283.774 44.2864 282.554 45.6451C281.333 47.0037 280.723 48.7264 280.723 50.8104V59.957H277.026Z" fill="white"/>
<path d="M304.612 48.1411H314.942C314.89 46.5398 314.426 45.2958 313.55 44.4065C312.674 43.5171 311.575 43.0718 310.252 43.0718C308.806 43.0718 307.566 43.5238 306.536 44.4251C305.508 45.3278 304.866 46.5665 304.612 48.1411ZM300.648 50.3131C300.648 47.2905 301.563 44.8505 303.392 42.9958C305.222 41.1411 307.534 40.2131 310.328 40.2131C312.946 40.2131 314.991 41.0705 316.466 42.7865C317.939 44.5011 318.676 46.6545 318.676 49.2465C318.676 49.5785 318.626 50.0985 318.524 50.8091H304.498C304.599 52.8171 305.279 54.3864 306.536 55.5158C307.795 56.6478 309.324 57.2131 311.13 57.2131C313.239 57.2131 315.132 56.4638 316.808 54.9638L318.371 57.6691C317.456 58.5091 316.319 59.1744 314.96 59.6704C313.6 60.1678 312.248 60.4144 310.902 60.4144C307.903 60.4144 305.444 59.4544 303.527 57.5358C301.607 55.6184 300.648 53.2104 300.648 50.3131Z" fill="white"/>
<path d="M325.039 59.957V40.6717H328.623V44.1397L328.508 45.5491H328.584C329.067 44.0771 329.854 42.8571 330.948 41.8904C332.039 40.9264 333.296 40.4424 334.72 40.4424C334.974 40.4424 335.304 40.4677 335.711 40.5184V44.1771C335.508 44.1264 335.152 44.1011 334.644 44.1011C332.714 44.1011 331.246 44.8824 330.242 46.4464C329.238 48.0077 328.736 49.8437 328.736 51.9531V59.957H325.039Z" fill="white"/>
<path d="M343.492 48.1411H353.822C353.771 46.5398 353.307 45.2958 352.431 44.4065C351.554 43.5171 350.455 43.0718 349.132 43.0718C347.686 43.0718 346.447 43.5238 345.416 44.4251C344.388 45.3278 343.746 46.5665 343.492 48.1411ZM339.528 50.3131C339.528 47.2905 340.444 44.8505 342.272 42.9958C344.102 41.1411 346.414 40.2131 349.21 40.2131C351.827 40.2131 353.871 41.0705 355.346 42.7865C356.819 44.5011 357.556 46.6545 357.556 49.2465C357.556 49.5785 357.506 50.0985 357.404 50.8091H343.378C343.479 52.8171 344.159 54.3864 345.416 55.5158C346.675 56.6478 348.206 57.2131 350.011 57.2131C352.119 57.2131 354.012 56.4638 355.688 54.9638L357.251 57.6691C356.338 58.5091 355.199 59.1744 353.842 59.6704C352.48 60.1678 351.128 60.4144 349.782 60.4144C346.783 60.4144 344.324 59.4544 342.407 57.5358C340.487 55.6184 339.528 53.2104 339.528 50.3131Z" fill="white"/>
<path d="M363.731 55.9544H367.695V59.957H363.731V55.9544Z" fill="white"/>
<path d="M375.127 40.6704H378.823V59.9557H375.127V40.6704Z" fill="white"/>
<path d="M388.919 50.2758C388.919 52.2838 389.559 53.9424 390.843 55.2491C392.126 56.5584 393.696 57.2131 395.551 57.2131C397.38 57.2131 398.943 56.5518 400.239 55.2304C401.535 53.9104 402.181 52.2571 402.181 50.2758C402.181 48.2931 401.535 46.6545 400.239 45.3585C398.943 44.0638 397.38 43.4158 395.551 43.4158C393.696 43.4158 392.126 44.0638 390.843 45.3585C389.559 46.6545 388.919 48.2931 388.919 50.2758ZM385.146 50.2758C385.146 47.4038 386.148 45.0105 388.156 43.0905C390.164 41.1731 392.615 40.2131 395.512 40.2131C398.435 40.2131 400.899 41.1651 402.905 43.0718C404.913 44.9771 405.917 47.3785 405.917 50.2758C405.917 53.1718 404.913 55.5864 402.905 57.5171C400.899 59.4478 398.447 60.4144 395.551 60.4144C392.654 60.4144 390.195 59.4478 388.175 57.5171C386.156 55.5864 385.146 53.1718 385.146 50.2758Z" fill="white"/>
<path d="M48.0398 0.00121492L29.6132 3.72521L14.0132 14.2172L3.61726 29.8798L0.0065918 48.3304L3.73054 66.7571L14.2225 82.357L29.8852 92.753L48.3344 96.3636L66.7611 92.6397L82.361 82.1477L92.757 66.4851L96.369 48.0358L92.645 29.6091L82.153 14.0092L66.4904 3.61187L48.0398 0.00121492Z" fill="#178CF2"/>
<g opacity="0.25">
<g opacity="0.25">
<path opacity="0.25" d="M79.4263 62.0264L71.9383 49.1918H91.3249L79.4263 62.0264ZM67.389 66.0864L71.4743 49.7451L78.8556 62.3997L67.389 66.0864ZM48.345 49.4198L48.565 49.1918H70.9103L66.625 66.3317L65.589 66.665L48.345 49.4198ZM61.5023 80.6063L65.769 67.805L79.6356 81.673L61.5023 80.6063ZM47.6357 73.4957L60.4863 80.9917L47.6357 93.841V73.4957ZM36.0677 79.2423L32.9758 66.0077L46.5931 72.9264L36.0677 79.2423ZM19.385 79.4343L31.5251 66.8517L32.0104 66.9877L31.8224 66.5437L32.2891 66.0597L35.4144 79.4343H19.385ZM24.0771 50.1304L30.8304 65.953L17.9798 62.3704L23.4718 49.1918H24.0532L24.3303 49.6638L24.4903 49.1918H46.9544V49.8811L32.4077 64.9571L31.981 64.7397L32.1051 65.2717L31.5317 65.865L24.7037 49.8638C24.6291 49.6904 24.4318 49.6104 24.2571 49.6838C24.0838 49.7584 24.0038 49.9584 24.0771 50.1304ZM5.69319 49.1918H22.7345L17.4091 61.9731L5.69319 49.1918ZM17.4264 37.9145L23.6531 48.5118H4.44514L17.4264 37.9145ZM46.5237 24.1918L30.7557 31.0251L36.0104 18.4105L46.5237 24.1918ZM59.333 17.8505L47.873 24.1678L47.6357 24.0318V6.1532L59.333 17.8505ZM62.8903 33.3665L62.4797 32.6491L62.4343 32.5691L48.561 24.5652L59.761 18.3905L66.2036 29.9331L62.8903 33.3665ZM77.965 18.7225L78.9943 35.7718L65.769 31.3638L66.581 30.5211C66.6356 30.5571 66.6983 30.5811 66.765 30.5811C66.8223 30.5811 66.8783 30.5678 66.9316 30.5385C67.0943 30.4465 67.1543 30.2398 67.0623 30.0758L67.0436 30.0425L77.965 18.7225ZM91.277 48.5118H72.653L79.437 36.8051L91.277 48.5118ZM65.3197 31.8291C65.3583 31.9051 65.425 31.9665 65.5116 31.9958L78.8596 36.4451L71.8663 48.5118H71.545L63.241 33.9825L65.3197 31.8291ZM62.749 34.4931L70.761 48.5118H49.2224L62.749 34.4931ZM47.6357 48.5118V24.8171L61.9343 33.0665L62.3983 33.8771L48.2771 48.5118H47.6357ZM30.7118 31.7865L46.9544 24.7465V48.0304L30.7118 31.7865ZM24.1651 48.0411L18.0037 37.5531L29.5397 32.3078L24.1651 48.0411ZM30.2624 32.2998L46.4743 48.5118H24.7237L30.2624 32.2998ZM33.0437 65.2784L46.9544 50.8597V72.3477L33.0437 65.2784ZM47.6357 72.4357V50.1558L47.873 49.9104L64.861 66.8984L47.6357 72.4357ZM60.8477 80.4143L48.125 72.993L65.1463 67.5224L60.8477 80.4143ZM93.1062 48.5118H92.2436L79.9569 36.3625L89.8089 31.9838C89.9796 31.9078 90.0582 31.7065 89.9809 31.5345C89.9049 31.3625 89.7036 31.2851 89.5316 31.3611L79.6743 35.7438L78.6063 18.0585L79.6089 17.0212C79.7383 16.8852 79.7342 16.6692 79.5996 16.5398C79.4636 16.4105 79.2489 16.4132 79.1196 16.5478L66.6969 29.4211L60.4544 18.2345L78.2396 17.1238C78.4263 17.1118 78.569 16.9505 78.5583 16.7625C78.5463 16.5758 78.4049 16.4305 78.1969 16.4438L60.461 17.5532L65.9237 6.62919C66.009 6.46119 65.941 6.2572 65.7717 6.17319C65.6037 6.08919 65.3997 6.15719 65.3157 6.32519L59.7997 17.3558L47.6357 5.19053V4.18653C47.6357 3.99853 47.4837 3.84654 47.2957 3.84654C47.1077 3.84654 46.9544 3.99853 46.9544 4.18653V23.6532L36.3651 17.8292L46.4131 5.54653C46.5317 5.40119 46.5104 5.18786 46.365 5.06919C46.221 4.9492 46.0063 4.97053 45.8877 5.11586L35.8984 17.3265L30.4144 7.45719C30.3224 7.29185 30.1158 7.23585 29.9518 7.32519C29.7878 7.41586 29.7291 7.62252 29.8198 7.78786L35.4344 17.8918L35.321 18.0305L35.4117 18.0812L29.9984 31.0731L15.4677 16.5438C15.3357 16.4105 15.1211 16.4105 14.9878 16.5438C14.8544 16.6758 14.8544 16.8918 14.9878 17.0252L29.5291 31.5665L17.8252 36.8865L16.7132 20.1972C16.6998 20.0092 16.5411 19.8652 16.3504 19.8812C16.1637 19.8932 16.0212 20.0545 16.0332 20.2425L17.1438 36.9011L5.0371 32.4985C4.85977 32.4345 4.66507 32.5265 4.60107 32.7025C4.53707 32.8785 4.62787 33.0745 4.80387 33.1371L16.8398 37.5145L3.36784 48.5118H2.63053C2.44253 48.5118 2.28906 48.6638 2.28906 48.8518C2.28906 49.0398 2.44253 49.1918 2.63053 49.1918H4.7718L17.1211 62.6651L17.0571 62.8197L17.1611 62.8477L16.0332 79.7517C16.0212 79.9397 16.1637 80.101 16.3504 80.113C16.3584 80.1143 16.3665 80.1143 16.3745 80.1143C16.5518 80.1143 16.7012 79.977 16.7132 79.797L17.8304 63.0344L30.7797 66.6437L18.3424 79.533L16.1277 81.829C15.9984 81.9637 16.0025 82.1797 16.1372 82.309C16.2038 82.373 16.2878 82.405 16.3732 82.405C16.4625 82.405 16.5518 82.3703 16.6185 82.301L18.7291 80.1143H35.6744L45.8784 93.721C45.9451 93.8103 46.0477 93.857 46.1504 93.857C46.2224 93.857 46.293 93.8356 46.3544 93.789C46.505 93.677 46.5343 93.4636 46.4223 93.313L36.3424 79.8717L46.9544 73.5037V95.4836L60.9463 81.4943L66.461 92.5236C66.545 92.6916 66.749 92.761 66.917 92.6756C67.085 92.5916 67.153 92.3877 67.069 92.2197L61.6063 81.293L81.3823 82.457L66.1303 67.2064L66.4343 67.109C66.3983 67.285 66.505 67.461 66.6823 67.5064C66.7103 67.513 66.737 67.5157 66.765 67.5157C66.9183 67.5157 67.057 67.413 67.0956 67.2584L67.1943 66.8637L79.2077 63.0024L79.3009 63.1624L79.4636 62.9864L89.5636 66.353C89.7423 66.4144 89.9343 66.3157 89.9942 66.1384C90.0529 65.9597 89.9556 65.7677 89.7783 65.7077L79.9717 62.4397L92.253 49.1918H93.1062C93.2942 49.1918 93.4476 49.0398 93.4476 48.8518C93.4476 48.6638 93.2942 48.5118 93.1062 48.5118Z" fill="white"/>
</g>
</g>
<path d="M26.3333 73.0811V23.4718H38.4745V43.3158H56.5145V23.4718H68.6557V73.0811H56.5145V53.6544H38.4745V73.0811H26.3333Z" fill="white"/>
</svg>
